#define aoutoff_width 14
#define aoutoff_height 14
static unsigned char aoutoff_bits[] = {
   0x00, 0x00, 0x00, 0x08, 0x00, 0x04, 0xf0, 0x03, 0x10, 0x03, 0x90, 0x02,
   0x50, 0x02, 0xf0, 0x01, 0x10, 0x02, 0x18, 0x02, 0x14, 0x02, 0xf2, 0x01,
   0x00, 0x00, 0x00, 0x00};
