#define arrow1_up_width 9
#define arrow1_up_height 13
static unsigned char arrow1_up_bits[] = {
   0x10, 0x00, 0x28, 0x00, 0x6c, 0x00, 0xaa, 0x00, 0x29, 0x01, 0x28, 0x00,
   0x28, 0x00, 0x28, 0x00, 0x28, 0x00, 0x28, 0x00, 0x28, 0x00, 0x28, 0x00,
   0x28, 0x00};
