#define arrow1_down_width 9
#define arrow1_down_height 13
static unsigned char arrow1_down_bits[] = {
   0x28, 0x00, 0x28, 0x00, 0x28, 0x00, 0x28, 0x00, 0x28, 0x00, 0x28, 0x00,
   0x28, 0x00, 0x28, 0x00, 0x29, 0x01, 0xaa, 0x00, 0x6c, 0x00, 0x28, 0x00,
   0x10, 0x00};
