#define autoscroll-on_width 16
#define autoscroll-on_height 16
static unsigned char autoscroll-on_bits[] = {
   0x00, 0x00, 0xf8, 0x1f, 0x08, 0x10, 0x68, 0x17, 0x08, 0x10, 0x68, 0x17,
   0x08, 0x10, 0x68, 0x17, 0x08, 0x10, 0xfe, 0x7f, 0x0a, 0x50, 0x6a, 0x57,
   0xfa, 0x5f, 0x02, 0x40, 0xfe, 0x7f, 0x00, 0x00};
