#define autoscroll-off_width 16
#define autoscroll-off_height 16
static unsigned char autoscroll-off_bits[] = {
   0x00, 0x00, 0xf8, 0x1f, 0x08, 0x10, 0xfe, 0x7f, 0x0a, 0x50, 0x6a, 0x57,
   0x0a, 0x50, 0x6a, 0x57, 0xfe, 0x7f, 0x08, 0x10, 0x68, 0x17, 0x08, 0x10,
   0xf8, 0x1f, 0x00, 0x00, 0x00, 0x00, 0x00, 0x00};
