#define backg_width 14
#define backg_height 14
static unsigned char backg_bits[] = {
   0x00, 0x00, 0x00, 0x00, 0x00, 0x00, 0x08, 0x02, 0x08, 0x02, 0x10, 0x01,
   0xa0, 0x00, 0x40, 0x00, 0x40, 0x00, 0x40, 0x00, 0x40, 0x00, 0x40, 0x00,
   0x00, 0x00, 0x00, 0x00};
