#define backgoff_width 14
#define backgoff_height 14
static unsigned char backgoff_bits[] = {
   0x00, 0x00, 0x00, 0x08, 0x00, 0x04, 0x08, 0x02, 0x08, 0x03, 0x90, 0x01,
   0xe0, 0x00, 0x60, 0x00, 0x50, 0x00, 0x48, 0x00, 0x44, 0x00, 0x42, 0x00,
   0x00, 0x00, 0x00, 0x00};
