#define bomb_width 20
#define bomb_height 20
static unsigned char bomb_bits[] = {
   0x00, 0x00, 0x00, 0x00, 0x00, 0x00, 0x00, 0x00, 0x00, 0x00, 0x0c, 0x00,
   0x00, 0x07, 0x00, 0x00, 0x01, 0x00, 0x80, 0x03, 0x00, 0x80, 0x03, 0x00,
   0x80, 0x03, 0x00, 0xe0, 0x0f, 0x00, 0xf0, 0x1f, 0x00, 0xf8, 0x3f, 0x00,
   0xf8, 0x3f, 0x00, 0xf8, 0x3f, 0x00, 0xf8, 0x3f, 0x00, 0xf0, 0x1f, 0x00,
   0xf0, 0x1f, 0x00, 0xe0, 0x0f, 0x00, 0x80, 0x03, 0x00, 0x00, 0x00, 0x00};
