#define boom3_width 20
#define boom3_height 20
static unsigned char boom3_bits[] = {
   0x00, 0x08, 0x00, 0x00, 0x0c, 0x00, 0x00, 0x12, 0x00, 0x01, 0x13, 0x00,
   0xc7, 0x10, 0x00, 0x6a, 0x24, 0x00, 0x32, 0xe4, 0x0f, 0x04, 0x06, 0x04,
   0x14, 0x85, 0x04, 0x24, 0x79, 0x02, 0x68, 0x41, 0x02, 0xa8, 0x20, 0x01,
   0x48, 0xa4, 0x00, 0x91, 0x92, 0x00, 0x96, 0x5a, 0x00, 0x5a, 0x8a, 0x00,
   0x42, 0x0b, 0x01, 0xa4, 0x94, 0x00, 0x00, 0x00, 0x00, 0x00, 0x00, 0x00};
