#define button_2up_width 11
#define button_2up_height 13
static unsigned char button_2up_bits[] = {
   0x20, 0x00, 0x70, 0x00, 0xf8, 0x00, 0xfc, 0x01, 0xfe, 0x03, 0xff, 0x07,
   0x00, 0x00, 0x20, 0x00, 0x70, 0x00, 0xf8, 0x00, 0xfc, 0x01, 0xfe, 0x03,
   0xff, 0x07};
