#define button_next_width 8
#define button_next_height 14
static unsigned char button_next_bits[] = {
   0x00, 0x02, 0x06, 0x0e, 0x1e, 0x3e, 0x7e, 0x7e, 0x3e, 0x1e, 0x0e, 0x06,
   0x02, 0x00};
