#define button_stop_width 10
#define button_stop_height 14
static unsigned char button_stop_bits[] = {
   0x00, 0x00, 0x00, 0x00, 0x00, 0x00, 0xfe, 0x01, 0xfe, 0x01, 0xfe, 0x01,
   0xfe, 0x01, 0xfe, 0x01, 0xfe, 0x01, 0xfe, 0x01, 0xfe, 0x01, 0x00, 0x00,
   0x00, 0x00, 0x00, 0x00};
