#define button_last_width 11
#define button_last_height 14
static unsigned char button_last_bits[] = {
   0x00, 0x00, 0x02, 0x03, 0x06, 0x03, 0x0e, 0x03, 0x1e, 0x03, 0x3e, 0x03,
   0x7e, 0x03, 0x7e, 0x03, 0x3e, 0x03, 0x1e, 0x03, 0x0e, 0x03, 0x06, 0x03,
   0x02, 0x03, 0x00, 0x00};
