#define button_prev_width 8
#define button_prev_height 14
static unsigned char button_prev_bits[] = {
   0x00, 0x40, 0x60, 0x70, 0x78, 0x7c, 0x7e, 0x7e, 0x7c, 0x78, 0x70, 0x60,
   0x40, 0x00};
