#define button_first_width 11
#define button_first_height 14
static unsigned char button_first_bits[] = {
   0x00, 0x00, 0x06, 0x02, 0x06, 0x03, 0x86, 0x03, 0xc6, 0x03, 0xe6, 0x03,
   0xf6, 0x03, 0xf6, 0x03, 0xe6, 0x03, 0xc6, 0x03, 0x86, 0x03, 0x06, 0x03,
   0x06, 0x02, 0x00, 0x00};
