#define button_2down_width 11
#define button_2down_height 13
static unsigned char button_2down_bits[] = {
   0xff, 0x07, 0xfe, 0x03, 0xfc, 0x01, 0xf8, 0x00, 0x70, 0x00, 0x20, 0x00,
   0x00, 0x00, 0xff, 0x07, 0xfe, 0x03, 0xfc, 0x01, 0xf8, 0x00, 0x70, 0x00,
   0x20, 0x00};
