#define changetime_width 20
#define changetime_height 20
static unsigned char changetime_bits[] = {
   0x00, 0x00, 0x00, 0x00, 0x00, 0x00, 0x00, 0x00, 0x00, 0xf0, 0x01, 0x00,
   0x08, 0x02, 0x00, 0x44, 0xff, 0x0f, 0xc2, 0x00, 0x00, 0x41, 0xff, 0x03,
   0x41, 0x10, 0x04, 0x41, 0xf0, 0x03, 0x79, 0x50, 0x04, 0x01, 0x90, 0x03,
   0x02, 0x48, 0x0c, 0x02, 0x88, 0x03, 0x04, 0x04, 0x00, 0xfc, 0x07, 0x00,
   0xfe, 0x0f, 0x00, 0x00, 0x00, 0x00, 0x00, 0x00, 0x00, 0x00, 0x00, 0x00};
