#define checkmark_width 12
#define checkmark_height 12
static unsigned char checkmark_bits[] = {
   0x80, 0x0f, 0x80, 0x07, 0xc0, 0x03, 0xc0, 0x01, 0xe0, 0x00, 0x61, 0x00,
   0x73, 0x00, 0x37, 0x00, 0x3c, 0x00, 0x38, 0x00, 0x38, 0x00, 0x30, 0x00};
