#define clear_width 11
#define clear_height 12
static unsigned char clear_bits[] = {
   0xf8, 0x00, 0xfc, 0x01, 0x76, 0x03, 0x23, 0x06, 0x07, 0x07, 0x8f, 0x07,
   0x07, 0x07, 0x23, 0x06, 0x76, 0x03, 0xfc, 0x01, 0xf8, 0x00, 0x00, 0x00};
