#define filter_width 16
#define filter_height 16
static unsigned char filter_bits[] = {
   0x00, 0x1f, 0x80, 0x2a, 0x40, 0x55, 0xa0, 0xaa, 0x60, 0xd5, 0xa0, 0xaa,
   0x60, 0xd5, 0xa0, 0xaa, 0x40, 0x55, 0xe0, 0x2a, 0x70, 0x1f, 0x38, 0x00,
   0x1c, 0xfe, 0x0e, 0x7c, 0x07, 0x38, 0x03, 0x10};
