#define folder_width 16
#define folder_height 16
static unsigned char folder_bits[] = {
   0x00, 0x00, 0x00, 0x00, 0x00, 0x00, 0x00, 0x0f, 0x80, 0x10, 0xfc, 0x3f,
   0x04, 0x20, 0x04, 0x20, 0x04, 0x20, 0x04, 0x20, 0x04, 0x20, 0x04, 0x20,
   0x04, 0x20, 0xfc, 0x3f, 0x00, 0x00, 0x00, 0x00};
