#define hidecanc_width 20
#define hidecanc_height 20
static unsigned char hidecanc_bits[] = {
   0x00, 0x00, 0x00, 0x80, 0x0f, 0x00, 0xe0, 0x3f, 0x00, 0x78, 0xf0, 0x00,
   0x1c, 0xc0, 0x01, 0x3c, 0x80, 0x01, 0x76, 0x00, 0x03, 0xe6, 0x00, 0x03,
   0xf3, 0x7f, 0x06, 0xf3, 0x7f, 0x06, 0xf3, 0x7f, 0x06, 0xf3, 0x7f, 0x06,
   0xf3, 0x7f, 0x06, 0x06, 0x38, 0x03, 0x06, 0x70, 0x03, 0x0c, 0xe0, 0x01,
   0x1c, 0xc0, 0x01, 0x78, 0xf0, 0x00, 0xe0, 0x3f, 0x00, 0x80, 0x0f, 0x00};
