#define hideexe_width 20
#define hideexe_height 20
static unsigned char hideexe_bits[] = {
   0x00, 0x00, 0x00, 0x80, 0x0f, 0x00, 0xe0, 0x3f, 0x00, 0x78, 0xf0, 0x00,
   0x1c, 0xc0, 0x01, 0x3c, 0xa0, 0x01, 0x76, 0x30, 0x03, 0xe6, 0x18, 0x03,
   0xc3, 0x0d, 0x06, 0x83, 0x0f, 0x06, 0x03, 0x07, 0x06, 0x3b, 0x0f, 0x06,
   0x73, 0x1f, 0x06, 0xe6, 0x3b, 0x03, 0xc6, 0x71, 0x03, 0x8c, 0xe1, 0x01,
   0x3c, 0xc1, 0x01, 0x78, 0xf0, 0x00, 0xe0, 0x3f, 0x00, 0x80, 0x0f, 0x00};
