#define list_width 16
#define list_height 16
static unsigned char list_bits[] = {
   0x00, 0x00, 0x00, 0x00, 0xfc, 0x3f, 0x00, 0x00, 0xfc, 0x3f, 0x00, 0x00,
   0xfc, 0x3f, 0x00, 0x00, 0x00, 0x00, 0x00, 0x00, 0xfc, 0x3f, 0x00, 0x00,
   0xfc, 0x3f, 0x00, 0x00, 0xfc, 0x3f, 0x00, 0x00};
