#define litbomb_width 20
#define litbomb_height 20
static unsigned char litbomb_bits[] = {
   0x80, 0x80, 0x00, 0x00, 0x22, 0x00, 0x00, 0x14, 0x02, 0x00, 0xec, 0x00,
   0x00, 0x27, 0x00, 0x00, 0x41, 0x00, 0x80, 0x83, 0x00, 0x80, 0x03, 0x00,
   0x80, 0x03, 0x00, 0xe0, 0x0f, 0x00, 0xf0, 0x1f, 0x00, 0xf8, 0x3f, 0x00,
   0xf8, 0x3f, 0x00, 0xf8, 0x3f, 0x00, 0xf8, 0x3f, 0x00, 0xf0, 0x1f, 0x00,
   0xf0, 0x1f, 0x00, 0xe0, 0x0f, 0x00, 0x80, 0x03, 0x00, 0x00, 0x00, 0x00};
