#define locked_width 20
#define locked_height 20
static unsigned char locked_bits[] = {
   0x00, 0x00, 0x00, 0x00, 0x00, 0x00, 0x00, 0x00, 0x00, 0xc0, 0x3f, 0x00,
   0xe0, 0x7f, 0x00, 0x60, 0x60, 0x00, 0x60, 0x60, 0x00, 0x60, 0x60, 0x00,
   0x60, 0x60, 0x00, 0xf8, 0xff, 0x01, 0x08, 0x00, 0x01, 0xe8, 0x7f, 0x01,
   0x08, 0x00, 0x01, 0xe8, 0x7f, 0x01, 0x08, 0x00, 0x01, 0xe8, 0x7f, 0x01,
   0x08, 0x00, 0x01, 0xf8, 0xff, 0x01, 0x00, 0x00, 0x00, 0x00, 0x00, 0x00};
