#define magnify_width 14
#define magnify_height 14
static unsigned char magnify_bits[] = {
   0x00, 0x00, 0xf8, 0x00, 0x04, 0x01, 0x72, 0x02, 0x0a, 0x02, 0x0a, 0x02,
   0x0a, 0x02, 0x02, 0x02, 0x04, 0x03, 0xf8, 0x07, 0x00, 0x0e, 0x00, 0x1c,
   0x00, 0x18, 0x00, 0x00};
