#define mc_width 16
#define mc_height 16
static unsigned char mc_bits[] = {
   0x00, 0x00, 0x00, 0x00, 0xdc, 0x3d, 0x00, 0x00, 0xdc, 0x3d, 0x00, 0x00,
   0xdc, 0x3d, 0x00, 0x00, 0xdc, 0x3d, 0x00, 0x00, 0xdc, 0x3d, 0x00, 0x00,
   0xdc, 0x3d, 0x00, 0x00, 0xdc, 0x3d, 0x00, 0x00};
