#define page_width 16
#define page_height 16
static unsigned char page_bits[] = {
   0x00, 0x00, 0x00, 0x00, 0x00, 0x00, 0xf8, 0x07, 0x08, 0x0a, 0x08, 0x12,
   0x08, 0x1e, 0x08, 0x10, 0x08, 0x10, 0x08, 0x10, 0x08, 0x10, 0x08, 0x10,
   0x08, 0x10, 0x08, 0x10, 0xf8, 0x1f, 0x00, 0x00};
