#define prob_width 14
#define prob_height 14
static unsigned char prob_bits[] = {
   0x00, 0x00, 0x00, 0x00, 0x00, 0x00, 0xf0, 0x01, 0x10, 0x02, 0x10, 0x02,
   0x10, 0x02, 0xf0, 0x01, 0x90, 0x00, 0x10, 0x01, 0x10, 0x01, 0x10, 0x02,
   0x00, 0x00, 0x00, 0x00};
