#define scrollback_width 16
#define scrollback_height 16
static unsigned char scrollback_bits[] = {
   0x00, 0x00, 0x00, 0x10, 0x00, 0x38, 0xfe, 0x7c, 0x42, 0x11, 0x42, 0x12,
   0xc2, 0x13, 0x02, 0x12, 0x02, 0x12, 0x02, 0x12, 0x02, 0x12, 0x02, 0x12,
   0x02, 0x12, 0x02, 0x12, 0xfe, 0x13, 0x00, 0x00};
