#define search_width 16
#define search_height 16
static unsigned char search_bits[] = {
   0x00, 0x1f, 0x80, 0x20, 0x40, 0x4e, 0x20, 0x91, 0x20, 0x80, 0x20, 0x80,
   0x20, 0x80, 0x20, 0x80, 0x40, 0x40, 0xe0, 0x20, 0x70, 0x1f, 0x38, 0x00,
   0x1c, 0xfe, 0x0e, 0x7c, 0x07, 0x38, 0x03, 0x10};
