#define showcanc_width 20
#define showcanc_height 20
static unsigned char showcanc_bits[] = {
   0x00, 0x00, 0x00, 0x80, 0x0f, 0x00, 0xe0, 0x3f, 0x00, 0x78, 0xf0, 0x00,
   0x1c, 0xc0, 0x01, 0x0c, 0x80, 0x01, 0x06, 0x00, 0x03, 0x06, 0x00, 0x03,
   0xf3, 0x7f, 0x06, 0xf3, 0x7f, 0x06, 0xf3, 0x7f, 0x06, 0xf3, 0x7f, 0x06,
   0xf3, 0x7f, 0x06, 0x06, 0x00, 0x03, 0x06, 0x00, 0x03, 0x0c, 0x80, 0x01,
   0x1c, 0xc0, 0x01, 0x78, 0xf0, 0x00, 0xe0, 0x3f, 0x00, 0x80, 0x0f, 0x00};
