#define solnoff_width 14
#define solnoff_height 14
static unsigned char solnoff_bits[] = {
   0x00, 0x00, 0x00, 0x08, 0x00, 0x04, 0xe0, 0x03, 0x10, 0x03, 0x90, 0x00,
   0x50, 0x00, 0xb0, 0x03, 0x10, 0x02, 0x18, 0x02, 0x14, 0x02, 0xe2, 0x01,
   0x00, 0x00, 0x00, 0x00};
